<?xml version="1.0" encoding="utf-8"?>
<!-- Generator: Adobe Illustrator 26.2.1, SVG Export Plug-In . SVG Version: 6.00 Build 0)  -->
<svg version="1.1" id="My_Forza" xmlns="http://www.w3.org/2000/svg" xmlns:xlink="http://www.w3.org/1999/xlink" x="0px" y="0px"
	 viewBox="0 0 1244.77 996.77" style="enable-background:new 0 0 1244.77 996.77;" xml:space="preserve">
<style type="text/css">
	.st0{fill:#FFFFFF;}
</style>
<g>
	<g>
		<path class="st0" d="M1098.85,420.28c-9.92,7.06-20.34,13.35-31.18,18.84c1.84,16.36,2.79,32.99,2.79,49.85
			c0,243.57-197.45,441.02-441.02,441.02c-131.24,0-249.09-57.33-329.88-148.31l-39.55,4.86
			c86.95,107.81,220.13,176.78,369.43,176.78c261.98,0,474.35-212.37,474.35-474.35C1103.8,465.64,1102.11,442.71,1098.85,420.28z
			 M629.45,47.96c159.63,0,299.46,84.82,376.87,211.84h38.54C964.03,113.62,808.3,14.62,629.45,14.62
			c-242.94,0-443.21,182.63-471.04,418.09l33.58,0C219.62,215.71,404.94,47.96,629.45,47.96z M155.62,511.21
			c1.25,27.07,4.76,53.55,10.36,79.24l26.75-39.66c-1.56-11.11-2.7-22.36-3.42-33.72L155.62,511.21z"/>
	</g>
</g>
<path class="st0" d="M120.57,464.71l-4.78,7.09L490.78,537l-87.1,129.18l134.56-16.52l124.75-184.94L120.57,464.71L120.57,464.71z
	 M861.99,464.71l-106.78,158.3l86.88-10.67c30.54-3.75,57.96-20.55,75.17-46.07l68.51-101.57L861.99,464.71L861.99,464.71z
	 M700.6,464.71L579.25,644.62l134.96-16.57l110.17-163.34H700.6z M342.81,385.51l-32.39,48.02h646.64
	c70.68,0,136.73-35.12,176.25-93.71l32.39-48.02H519.06C448.39,291.8,382.33,326.92,342.81,385.51z M310.87,748.06l-231.8,28.46
	l168.71-250.13l190.28,33.09L310.87,748.06z"/>
</svg>
