<svg xmlns="http://www.w3.org/2000/svg" width="192" height="192" fill="currentColor" viewBox="0 0 256 256">
						<rect width="256" height="256" fill="none"></rect>
						<path d="M80,56.00005h24a0,0,0,0,1,0,0v72a24,24,0,0,1-24,24h0a24,24,0,0,1-24-24V80a24,24,0,0,1,24-24Z" transform="translate(184.00005 24.00003) rotate(90)" fill="none" stroke="currentColor" stroke-linecap="round" stroke-linejoin="round" stroke-width="12"></path>
						<path d="M128,80H104a24,24,0,0,1-24-24V56a24,24,0,0,1,24-24h0a24,24,0,0,1,24,24Z" fill="none" stroke="currentColor" stroke-linecap="round" stroke-linejoin="round" stroke-width="12"></path>
						<path d="M152,32.00007h24a0,0,0,0,1,0,0v72a24,24,0,0,1-24,24h0a24,24,0,0,1-24-24V56a24,24,0,0,1,24-24Z" transform="translate(304 160.00011) rotate(180)" fill="none" stroke="currentColor" stroke-linecap="round" stroke-linejoin="round" stroke-width="12"></path>
						<path d="M176,128V104a24,24,0,0,1,24-24h0a24,24,0,0,1,24,24v0a24,24,0,0,1-24,24Z" fill="none" stroke="currentColor" stroke-linecap="round" stroke-linejoin="round" stroke-width="12"></path>
						<path d="M176,104.00005h24a0,0,0,0,1,0,0v72a24,24,0,0,1-24,24h0a24,24,0,0,1-24-24V128A24,24,0,0,1,176,104.00005Z" transform="translate(23.99995 328.00003) rotate(-90)" fill="none" stroke="currentColor" stroke-linecap="round" stroke-linejoin="round" stroke-width="12"></path>
						<path d="M128,176h24a24,24,0,0,1,24,24v0a24,24,0,0,1-24,24h0a24,24,0,0,1-24-24Z" fill="none" stroke="currentColor" stroke-linecap="round" stroke-linejoin="round" stroke-width="12"></path>
						<path d="M104,128h24a0,0,0,0,1,0,0v72a24,24,0,0,1-24,24h0a24,24,0,0,1-24-24V152A24,24,0,0,1,104,128Z" fill="none" stroke="currentColor" stroke-linecap="round" stroke-linejoin="round" stroke-width="12"></path>
						<path d="M80,128v24a24,24,0,0,1-24,24h0a24,24,0,0,1-24-24v0a24,24,0,0,1,24-24Z" fill="none" stroke="currentColor" stroke-linecap="round" stroke-linejoin="round" stroke-width="12"></path>
					</svg>
