<svg xmlns="http://www.w3.org/2000/svg" viewBox="0 0 810.06837 172.34598">
	<defs>
		<style>.cls-1{fill:#0066b1;}</style>
	</defs>
	<title>BMW-MR_stdBM_pos_rgb_crop</title>
	<g id="Ebene_2" data-name="Ebene 2">
		<g id="Ebene_1-2" data-name="Ebene 1">
			<path
				d="M293.16417,51.86371c0,11.232-6.972,20.335-26.242,20.335h-34.278V3.25369h34.762c15.978,0,23.821,8.521,23.821,18.398,0,6.003-2.517,12.007-8.424,14.912a16.42687,16.42687,0,0,1,10.361,15.3m-42.316-33.795v13.073h14.815a6.485,6.485,0,0,0,6.77445-6.182q.01145-.24986.00357-.5c0-3.874-3.001-6.391-6.778-6.391Zm23.53,32.826c0-3.776-2.614-6.294-7.262-6.294h-16.268v12.782h16.171c4.841,0,7.359-2.131,7.359-6.488"/>
			<path
				d="M365.68575,72.19836l-1.549-45.899c-1.066,4.067-2.227,8.231-3.583,12.395l-10.846,33.504h-17.623l-10.845-33.504c-1.356-4.067-2.421-8.134-3.486-12.202l-1.549,45.706h-17.527l2.808-68.945h25.177l14.234,47.739,14.234-47.739h25.177l2.808,68.945Z"/>
			<path
				d="M487.78346,3.25357c-5.616,23.336-11.62,45.415-18.785,68.945h-22.175l-9.489-43.285-9.587,43.285h-22.174c-7.166-23.53-13.169-45.609-18.882-68.945h19.656c3.292,14.718,7.069,30.502,10.942,45.801l9.78-45.801h20.432l9.78,45.801c3.873-15.299,7.649-31.083,10.942-45.801Z"/>
			<path
				d="M296.83177,169.08505l-1.549-45.892c-1.065,4.067-2.227,8.23-3.582,12.393l-10.844,33.499h-17.621l-10.843-33.499c-1.355-4.066-2.42-8.132-3.485-12.198l-1.55,45.697h-17.524l2.808-68.934h25.173l14.232,47.731,14.232-47.731h25.172l2.808,68.934Z"/>
			<path
				d="M319.29579,134.61829c0-21.978,18.395-36.016,38.243-36.016s38.243,14.038,38.243,36.016-18.395,36.016-38.243,36.016-38.243-14.038-38.243-36.016m57.703,0a19.48314,19.48314,0,1,0,.00013.05407l-.00013-.05407"/>
			<path d="M454.35725,115.73947h-20.041v53.346h-18.396v-53.346h-19.944v-15.588h58.381Z"/>
			<path
				d="M454.5522,134.61829c0-21.978,18.394-36.016,38.24194-36.016s38.243,14.038,38.243,36.016-18.395,36.016-38.243,36.016-38.24194-14.038-38.24194-36.016m57.703,0a19.48286,19.48286,0,1,0,.00013.05334l-.00013-.05334"/>
			<path
				d="M597.64949,168.69717v.388h-19.75a114.02438,114.02438,0,0,0-4.551-11.231,77.84421,77.84421,0,0,0-5.712-9.875h-11.521v21.106H537.71944v-68.934h30.208c19.46,0,26.721,11.522,26.721,22.656a21.536,21.536,0,0,1-10.359,18.975,95.58547,95.58547,0,0,1,7.552,12.974,141.95443,141.95443,0,0,1,5.808,13.941m-41.534-35.822h11.715c4.937,0,8.714-3.194,8.714-8.81,0-5.518-3.777-8.81-8.714-8.81h-11.715Z"/>
			<path
				d="M664.55086,168.69717v.388h-19.75a114.02683,114.02683,0,0,0-4.551-11.231,77.84421,77.84421,0,0,0-5.712-9.875h-11.521v21.106H604.6208v-68.934h30.208c19.46,0,26.721,11.522,26.721,22.656a21.536,21.536,0,0,1-10.359,18.975,95.58541,95.58541,0,0,1,7.552,12.974,141.95206,141.95206,0,0,1,5.808,13.941m-41.534-35.822h11.715c4.937,0,8.714-3.194,8.714-8.81,0-5.518-3.777-8.81-8.714-8.81h-11.715Z"/>
			<path
				d="M717.02657,155.72519h-25.754c-1.161,4.453-2.323,8.907-3.388,13.36h-18.492c6.099-25.173,13.16706-47.44,22.365-68.934h24.978c9.198,21.494,16.266,43.761,22.269,68.934h-18.589c-1.066-4.453-2.228-8.907-3.389-13.36m-4.454-15.976c-2.71106-9.585-5.615-18.491-8.423-25.656-2.904,7.165-5.712,16.071-8.519,25.656Z"/>
			<path
				d="M810.06837,134.61829c0,19.46-14.909,34.467-39.113,34.467h-26.238v-68.934h26.238c24.204,0,39.113,15.007,39.113,34.467m-18.782,0c0-12.489-9.682-18.589-20.33105-18.589h-7.843v37.178h7.843c10.649,0,20.33105-6.1,20.33105-18.589"/>
			<path
				d="M86.173,0a86.17239,86.17239,0,1,0,.00122,0H86.173m80.569,86.173A80.569,80.569,0,1,1,86.173,5.604a80.569,80.569,0,0,1,80.569,80.569h0"/>
			<path
				d="M86.17308,35.07178v2.801a48.35413,48.35413,0,0,1,48.299,48.3h2.802a51.10139,51.10139,0,0,0-51.101-51.101m0,99.4a48.35392,48.35392,0,0,1-48.299-48.299h-2.803a51.10181,51.10181,0,0,0,51.10162,51.102h.00037"/>
			<path
				d="M127.93626,49.61438c1.169,1.258,2.855,3.285,3.803,4.515l17.45-11.078c-.872-1.141-2.258-2.874-3.299-4.092l-11.049,7.307-.753.651.564-.823,4.878-9.74-3.448-3.448-9.742,4.88-.821.561.654-.756,7.311-11.046c-1.285-1.095-2.521-2.098-4.099-3.315l-11.08,17.437c1.404,1.081,3.253,2.665,4.431,3.744l10.429-5.41.667-.491-.491.668Z"/>
			<path
				d="M88.344,27.51868l4.768-10.679.303-.946-.086.989.502,14.27c1.672.159,3.399.39,5.104.673l-.776-21.139c-2.383-.262-4.754-.451-7.126-.551l-4.695,11.657-.165.865-.166-.865-4.695-11.657c-2.371.1-4.743.289-7.126.551l-.776,21.139c1.705-.283,3.432-.514,5.104-.673l.502-14.27-.087-.989.305.946,4.767,10.679Z"/>
			<path
				d="M49.77748,44.36267c2.755-2.903,4.319-6.259,1.559-9.462a5.36165,5.36165,0,0,0-6.107-1.26l-.207.083.068-.182a5.0398,5.0398,0,0,0-1.741-5.279,5.20073,5.20073,0,0,0-3.857-1.074c-2.587.263-4.581,2.031-10.004,8.079-1.634,1.823-4.016,4.702-5.448,6.568l14.89,14.126c4.948-5.469,6.958-7.502,10.847-11.599m-19.427-3.454a92.32865,92.32865,0,0,1,7.633-8.314,3.96308,3.96308,0,0,1,1.555-.995,1.84487,1.84487,0,0,1,2.20694,1.39161l.00806.03739a3.27954,3.27954,0,0,1-1.107,2.755c-1.587,1.787-7.4,7.873-7.4,7.873Zm5.828,5.53s5.666-5.986,7.512-7.903a6.86473,6.86473,0,0,1,1.713-1.47,1.9343,1.9343,0,0,1,2.005.041,1.76573,1.76573,0,0,1,.76,1.864,5.51238,5.51238,0,0,1-1.466,2.293c-.78.838-7.499,8.028-7.508,8.037Z"/>
			<path class="cls-1"
				  d="M86.17308,35.072V86.173h-51.101A51.07518,51.07518,0,0,1,86.12144,35.072q.02583,0,.05164,0"/>
			<path class="cls-1" d="M137.27467,86.173a51.07557,51.07557,0,0,1-51.04919,51.102h-.0528V86.173Z"/>
		</g>
	</g>
</svg>
