<svg width="24" height="24" viewBox="0 0 24 24" fill="none" xmlns="http://www.w3.org/2000/svg">
<path d="M18.8569 23.0335C17.5551 24.2969 16.1188 24.0999 14.7498 23.5043C13.2943 22.8966 11.9636 22.8582 10.4265 23.5043C8.51222 24.3305 7.49625 24.0903 6.34337 23.0335C-0.165585 16.3324 0.795146 6.12466 8.19278 5.74037C9.98694 5.83644 11.2431 6.73232 12.2999 6.80678C13.8707 6.48734 15.3742 5.57224 17.0555 5.69233C19.0755 5.85566 20.5862 6.65306 21.595 8.08695C17.4398 10.5849 18.4246 16.061 22.2411 17.5982C21.4773 19.6037 20.4973 21.5852 18.8545 23.0503L18.8569 23.0335ZM12.1558 5.66831C11.9612 2.69005 14.3751 0.240183 17.1516 0C17.5335 3.43461 14.0292 6.00457 12.1558 5.66831Z" fill="white"/>
</svg>
