<svg width="24" height="24" viewBox="0 0 24 24" fill="none" xmlns="http://www.w3.org/2000/svg">
<path d="M24 12.0026C24.0005 9.70925 23.3438 7.46376 22.1077 5.53204C20.8716 3.60031 19.1078 2.06326 17.0252 1.10287C14.9426 0.142489 12.6284 -0.201004 10.3566 0.113067C8.08487 0.427137 5.95068 1.38562 4.20676 2.87502C2.46285 4.36441 1.18225 6.32235 0.516594 8.51699C-0.14906 10.7116 -0.171887 13.0511 0.450816 15.2583C1.07352 17.4655 2.31567 19.448 4.03019 20.9712C5.74471 22.4943 7.8598 23.4943 10.125 23.8526V15.4706H7.0785V12.0026H10.125V9.35812C10.0594 8.74079 10.1304 8.11659 10.3329 7.52976C10.5355 6.94293 10.8646 6.40783 11.297 5.96239C11.7295 5.51695 12.2546 5.17208 12.8351 4.95221C13.4157 4.73234 14.0375 4.64287 14.6565 4.69012C15.5565 4.70194 16.4545 4.78015 17.343 4.92412V7.88062H15.831C15.5734 7.84694 15.3116 7.8716 15.0649 7.95279C14.8181 8.03398 14.5928 8.16961 14.4056 8.34965C14.2183 8.52969 14.0739 8.74952 13.9832 8.99289C13.8924 9.23626 13.8574 9.49693 13.881 9.75562V12.0056H17.2095L16.677 15.4736H13.875V23.8601C16.6984 23.4135 19.2695 21.9737 21.1257 19.7999C22.9819 17.6261 24.0012 14.8611 24 12.0026Z" fill="white"/>
</svg>
