<svg width="48" height="48" viewBox="0 0 48 48" fill="none" xmlns="http://www.w3.org/2000/svg">
<path fill-rule="evenodd" clip-rule="evenodd" d="M12.8712 41.7982L16.118 47.2471L19.4548 41.7631C19.4548 41.7631 18.8136 39.1949 18.8136 35.9933C18.8136 31.8957 18.7609 27.7982 18.7082 23.7006C18.6695 20.6965 18.6309 17.6923 18.613 14.6881C18.6108 14.193 18.7154 13.7032 18.9196 13.2522C19.2657 12.5085 19.5001 12.5094 20.2067 12.5119C20.3254 12.5123 20.4574 12.5128 20.6055 12.5098C20.9318 12.5033 21.5021 13.2545 21.7366 13.5849C21.7502 13.6039 21.7675 13.6197 21.7876 13.6314C21.8077 13.6431 21.8301 13.6504 21.8532 13.6528C21.8763 13.6552 21.8997 13.6527 21.9218 13.6454C21.9439 13.6381 21.9642 13.6263 21.9813 13.6105L22.9588 12.7075C22.9748 12.6926 22.9877 12.6748 22.9967 12.6549C23.0057 12.6351 23.0107 12.6136 23.0113 12.5919C23.0119 12.5701 23.0082 12.5484 23.0003 12.528C22.9924 12.5077 22.9805 12.4892 22.9654 12.4735L21.611 11.0727C21.611 11.0727 19.253 11.0793 18.2832 11.0793C17.8236 11.0793 17.619 11.1273 17.5291 11.0469C17.4398 10.967 17.4641 10.76 17.4641 10.2524C17.4641 9.14897 17.3985 7.99491 17.3336 6.85182C17.2914 6.10771 17.2494 5.36825 17.2259 4.65044C17.2182 4.351 17.3182 4.15633 17.4641 3.89082C17.8552 3.1812 17.7564 2.4055 17.1515 1.90365C16.4979 1.36072 15.4828 1.36608 14.8601 1.91615C14.3136 2.39896 14.2499 3.13358 14.6607 3.85272C14.7798 4.06644 14.9078 4.32659 14.8988 4.56055C14.8697 5.31501 14.823 6.06904 14.7763 6.82307C14.7 8.05387 14.6238 9.28466 14.6238 10.5173C14.6238 10.5744 14.6246 10.6259 14.6252 10.6723C14.6314 11.0878 14.6315 11.0935 14.0231 11.0935C12.9813 11.0935 10.606 11.1162 10.606 11.1162L9.0939 12.3169C9.06816 12.3374 9.04673 12.3627 9.03086 12.3915C9.01499 12.4203 9.00499 12.4519 9.00145 12.4846C8.9979 12.5173 9.00088 12.5503 9.01021 12.5818C9.01954 12.6133 9.03503 12.6427 9.05579 12.6682L9.89519 13.7022C9.91851 13.7312 9.94803 13.7545 9.98156 13.7706C10.0151 13.7866 10.0518 13.7949 10.089 13.7949C10.1261 13.7949 10.1628 13.7866 10.1964 13.7706C10.2299 13.7545 10.2594 13.7312 10.2827 13.7022C10.6399 13.2528 11.1323 12.6521 11.4252 12.6574C11.5959 12.6607 11.7451 12.6591 11.8773 12.6578C12.6238 12.65 12.8273 12.6479 13.2885 13.5421C13.4772 13.9082 13.5028 14.3678 13.507 14.7845C13.532 17.6718 13.5362 25.0835 13.5362 25.0835L12.536 26.1318L13.5677 27.2201C13.5677 27.2201 13.5123 33.8376 13.5123 36.1552C13.5123 39.8979 12.8712 41.7982 12.8712 41.7982ZM27.5004 24.6168C26.5003 26.851 24.7381 28.1643 22.1622 28.5459C23.582 33.715 26.5307 37.7233 30.7509 40.788C34.9949 43.8693 39.73 45.6898 44.9962 45.9875C41.1689 44.3271 37.7905 42.081 35.0044 38.9342C32.3386 35.923 30.1651 32.0904 28.6649 28.3661C28.6402 28.3049 28.8395 28.1242 29.1705 27.8243C30.4268 26.6857 33.5798 23.8281 33.5798 19.2577C33.5798 11.6258 25.2007 11.0096 22.6016 11.0971C22.5777 11.0977 23.563 12.1157 23.8517 12.4134C23.8735 12.4351 23.886 12.4644 23.8867 12.4951C23.8874 12.5258 23.8761 12.5556 23.8553 12.5783C23.7889 12.6515 23.702 12.755 23.6034 12.8723C23.4431 13.0631 23.252 13.2907 23.0677 13.4849C23.2137 13.5745 23.407 13.6522 23.6009 13.7303C23.7953 13.8085 23.9903 13.887 24.1393 13.9779C27.6874 16.1329 29.1983 20.8264 27.5004 24.6168Z" fill="white"/>
</svg>
