<svg width="25" height="24" viewBox="0 0 25 24" fill="none" xmlns="http://www.w3.org/2000/svg">
<path d="M24.0025 12.2764C24.0025 11.4606 23.9351 10.6405 23.7911 9.83801H12.2432V14.459H18.8561C18.5817 15.9493 17.7 17.2677 16.4089 18.1055V21.1039H20.3542C22.6709 19.0138 24.0025 15.9273 24.0025 12.2764Z" fill="white"/>
<path d="M12.2443 24.0008C15.5463 24.0008 18.3309 22.9382 20.3598 21.1039L16.4145 18.1055C15.3168 18.8375 13.8998 19.252 12.2488 19.252C9.05479 19.252 6.34663 17.1399 5.37494 14.3003H1.30371V17.3912C3.38206 21.4434 7.61524 24.0008 12.2443 24.0008Z" fill="white"/>
<path d="M5.36907 14.3003C4.85623 12.8099 4.85623 11.1961 5.36907 9.70575V6.61481H1.30234C-0.434114 10.0056 -0.434114 14.0004 1.30234 17.3912L5.36907 14.3003Z" fill="white"/>
<path d="M12.2443 4.74966C13.9897 4.7232 15.6767 5.36697 16.9408 6.54867L20.4362 3.12262C18.2229 1.0855 15.2853 -0.034466 12.2443 0.000808666C7.61522 0.000808666 3.38206 2.55822 1.30371 6.61481L5.37043 9.70575C6.33763 6.86173 9.05027 4.74966 12.2443 4.74966Z" fill="white"/>
</svg>
