<svg width="38" height="38" viewBox="0 0 38 38" fill="none" xmlns="http://www.w3.org/2000/svg">
<g clip-path="url(#clip0_47_59)">
<path d="M11.8183 12.0759C12.5891 11.5539 9.2492 11.7284 7.83618 11.6112L7.93381 13.6354C7.93381 13.6354 11.0617 12.603 11.8183 12.0759Z" fill="white"/>
<path d="M17.3246 17.6958C17.1384 15.2923 16.5706 10.2713 17.2129 7.71492C17.5404 6.41129 18.5809 4.86832 17.2386 2.62262C16.6181 0.746107 9.17791 -2.06993 5.19448 2.368C5.19448 2.368 0.819251 6.39728 1.50264 15.8957C1.67991 18.3476 2.48019 22.5551 4.2606 25.3801C4.72561 25.4183 5.24586 25.4387 5.81492 25.4387C7.54138 25.4387 9.80607 25.2604 12.5473 24.9103C13.1421 24.8352 14.0169 24.6226 15.0304 24.3756C16.1287 24.1083 17.4621 23.7849 18.9496 23.5087C18.9541 23.2926 18.9387 23.0765 18.9034 22.8632C18.6721 21.4679 17.4338 19.114 17.3246 17.6958ZM13.2872 19.911C13.2872 19.911 11.2962 19.3305 8.13228 17.0657C8.13228 17.0657 7.78031 17.9377 8.30826 20.3171C8.30826 20.3171 7.48743 21.2464 5.78923 20.6086L4.55862 10.5093C4.55862 10.5093 8.71804 7.77984 13.1472 10.0968C13.9025 10.4915 14.5178 13.5341 13.1125 14.2827C11.9223 14.8966 10.6139 15.2529 9.27426 15.3279L14.5153 18.5793L13.2872 19.911Z" fill="white"/>
<path d="M36.2923 10.2839C35.8094 7.68815 35.5319 6.13882 35.5319 6.13882C35.5319 6.13882 35.4882 4.82373 32.8343 2.23557C32.2754 1.69684 31.6315 1.2522 30.928 0.919214C28.4334 -0.226553 25.7255 0.346331 25.7255 0.346331C24.0556 0.473638 17.9089 3.58121 17.9089 8.04461C17.9089 11.1 18.3572 17.156 19.8358 21.734C20.0438 22.2638 20.3123 22.7682 20.6361 23.2375C21.2385 23.1522 21.859 23.0783 22.4948 23.0236H22.5269H22.5591C23.0112 23.0236 23.2116 23.3864 23.2977 23.5417C23.3729 23.7056 23.4845 23.8505 23.624 23.9657C23.6998 24.0153 23.7717 24.065 23.8411 24.1146L24.4281 22.9778L27.5111 23.2897H27.5612L27.6292 23.3011L28.1816 23.3572L28.1533 23.4017C28.9472 23.5596 29.7526 23.7493 30.2086 23.8613L30.2202 23.8307L30.6916 23.981L31.1901 24.1083V24.1401C31.8542 24.3527 33.185 24.7843 34.1086 25.1191C34.932 24.3183 35.1619 23.585 35.1619 23.585C35.5334 22.665 35.8201 21.7135 36.0187 20.7423C36.5801 17.2579 36.7689 12.8428 36.2923 10.2839ZM30.6916 16.3018C31.9569 17.0465 31.5908 19.1293 29.989 19.7098C28.1495 20.3731 27.0627 20.9269 26.0723 20.5653C24.974 20.1656 24.5951 19.8562 23.8719 19.1726C25.8732 18.9014 27.61 17.0605 27.61 17.0605C27.61 17.0605 24.4063 15.4043 24.2778 14.5233C23.1628 10.0497 29.136 8.28522 29.136 8.28522C29.136 8.28522 31.3982 8.86829 32.3474 10.107C32.3474 10.107 27.4584 11.9873 26.7442 14.2967C26.739 14.2967 29.6833 15.7098 30.6916 16.3018Z" fill="white"/>
<path d="M11.7746 30.4266C11.534 30.1603 11.2057 29.9875 10.8484 29.939L11.176 32.1427L12.1073 32.3795C12.2242 32.0559 12.2573 31.7083 12.2036 31.3687C12.1601 31.0189 12.0105 30.6904 11.7746 30.4266Z" fill="white"/>
<path d="M4.28577 30.0039C4.15821 30.2433 4.08087 30.5057 4.0584 30.7754C4.00429 31.2539 4.12358 31.7358 4.39495 32.1351C4.53176 32.339 4.71396 32.5091 4.92754 32.6322C5.14111 32.7554 5.38036 32.8283 5.62685 32.8454C5.75288 32.6023 5.83009 32.3373 5.85422 32.065C5.90888 31.5871 5.78754 31.1056 5.51253 30.7092C5.37604 30.5066 5.19449 30.3376 4.98183 30.2153C4.76916 30.0931 4.53104 30.0207 4.28577 30.0039Z" fill="white"/>
<path d="M25.3959 27.6487C25.2442 27.9918 25.1863 28.3685 25.228 28.7408C25.2697 29.1131 25.4096 29.4679 25.6336 29.7697C25.7818 29.9656 25.9737 30.125 26.1943 30.2354C26.4149 30.3458 26.6582 30.4043 26.9053 30.4062C27.0155 30.156 27.077 29.8873 27.0864 29.6144C27.1121 29.1341 26.962 28.6609 26.6638 28.2815C26.5153 28.087 26.3239 27.9288 26.1041 27.8191C25.8843 27.7094 25.642 27.6511 25.3959 27.6487Z" fill="white"/>
<path d="M37.9987 29.2108C37.4964 27.9008 37.2716 27.3305 34.8836 26.1083C34.2953 25.8066 30.8861 24.7232 30.8861 24.7232C30.8861 24.7232 30.8218 24.8925 30.7974 24.9702C30.7499 25.128 30.6844 25.3788 30.6844 25.3788C30.6844 25.3788 30.6343 25.0886 30.6292 24.9969C30.624 24.9053 30.6446 24.6545 30.6446 24.6545C30.6446 24.6545 29.035 24.2483 27.7248 24.0103C27.6246 23.9925 27.0825 24.5081 27.0825 24.5081L27.0542 24.1376L27.1685 23.9555L25.0709 23.7442L24.6033 24.6481L24.3232 24.8047L24.2038 25.1471C24.1996 25.1644 24.19 25.1798 24.1764 25.1912C24.1627 25.2026 24.1457 25.2094 24.1279 25.2105C24.1101 25.2117 24.0924 25.2071 24.0774 25.1975C24.0623 25.188 24.0508 25.1739 24.0445 25.1573C23.9571 24.9473 23.7876 24.7894 23.4446 24.5679C23.0053 24.2814 22.8421 23.7391 22.7792 23.7442C18.3474 24.1261 14.6646 25.3992 12.8675 25.6335C8.09276 26.2407 5.51592 26.2382 3.98215 26.0599C3.87682 26.0485 3.51457 25.8664 3.41951 25.8537C3.24995 25.8295 2.94422 25.7671 2.81063 25.7417C2.19018 25.6271 2.14137 25.6513 2.14137 25.6513C2.14137 25.6513 1.47725 26.755 0.792577 26.8403C0.107903 26.9256 0 28.2191 0 28.2191L0.106619 35.8359C0.106619 35.8359 1.09188 36.1338 1.17795 36.1338C1.26401 36.1338 1.65709 35.3699 1.65709 35.3699L1.69177 35.6882L1.82023 35.7404L1.83051 36.3133C1.83051 36.3133 2.97634 36.727 3.27564 36.727C3.46704 36.727 3.51971 36.5233 3.53255 36.3769C3.53649 36.3325 3.55643 36.2909 3.58875 36.2598C3.62106 36.2287 3.66358 36.2102 3.70854 36.2076C3.98087 36.1949 4.49341 36.2496 4.65526 36.7983C4.72164 36.8213 4.78943 36.84 4.85822 36.8543C4.96951 36.8573 5.08085 36.8504 5.19093 36.834L5.50051 36.6214L5.47995 36.8862C5.47995 36.8862 8.54107 37.4489 17.1053 35.6245L17.6191 35.2846C17.7968 35.2671 17.9751 35.3122 18.1226 35.4119C18.3898 35.5813 22.2178 34.3935 24.0933 34.4788L24.2988 33.8422C24.2988 33.8422 24.7266 34.1389 24.855 34.4355C26.5296 34.1755 28.2417 34.2916 29.8648 34.7754C29.8648 34.7754 30.2926 34.8174 30.3787 34.6481C30.4647 34.4788 31.0633 35.1573 31.2355 35.1573C31.4076 35.1573 32.3916 34.1809 32.3916 34.1809C32.7333 34.5208 32.9054 34.2242 32.7333 34.5208C32.5612 34.8174 32.6048 35.3266 32.5637 35.5392C32.5226 35.7518 35.4848 36.3031 37.0417 38.0001C37.0417 38.0001 37.9987 32.6876 37.9011 29.7047C37.8947 29.5278 38.0064 29.3305 37.9987 29.2108ZM6.75296 31.5723C6.73797 31.8207 6.67349 32.0637 6.56325 32.2872C6.45301 32.5107 6.29919 32.7104 6.11068 32.8747C5.93371 33.0351 5.7243 33.1563 5.49639 33.2303C5.26848 33.3043 5.02729 33.3293 4.78886 33.3037C4.55222 33.2891 4.32119 33.2262 4.1103 33.1188C3.8994 33.0115 3.71319 32.862 3.56338 32.6799C3.40468 32.4913 3.28667 32.2724 3.21664 32.0368C3.1466 31.8012 3.12602 31.5539 3.15618 31.3101C3.18832 30.8017 3.41863 30.3255 3.79846 29.9823C3.97339 29.8167 4.18254 29.6907 4.41144 29.6131C4.64033 29.5355 4.8835 29.5082 5.12413 29.5329C5.36299 29.5496 5.5956 29.616 5.80677 29.7279C6.01794 29.8398 6.20291 29.9946 6.3496 30.1821C6.50649 30.3758 6.62294 30.5984 6.69219 30.8371C6.76144 31.0758 6.78209 31.3257 6.75296 31.5723ZM7.13062 33.3356L7.48516 32.8034L7.31046 30.1592L6.88912 29.6767L8.59631 29.566L8.23791 30.0994L8.42418 32.9345L9.62396 32.2827L9.68177 33.1739L7.13062 33.3356ZM12.7056 32.2076C12.4196 32.615 11.988 32.8603 11.4108 32.9434L9.98235 33.1471L10.2945 32.5895L9.90913 29.967L9.45183 29.5189L10.834 29.3215C11.0944 29.276 11.3616 29.2882 11.6166 29.3573C11.8716 29.4265 12.108 29.5508 12.3087 29.7213C12.6823 30.0275 12.9243 30.4631 12.9857 30.9396C13.0607 31.3802 12.9603 31.8325 12.7056 32.2012V32.2076ZM16.7289 31.7544C16.5287 32.0052 16.2442 32.1765 15.9273 32.2369C15.4205 32.3407 14.8937 32.2864 14.4192 32.0816L15.2118 31.3508L16.2857 31.7684C16.3252 31.668 16.3359 31.5587 16.3165 31.4527C16.278 31.2727 16.0562 31.092 15.6511 30.9103C15.1613 30.6888 14.8676 30.5484 14.7699 30.489C14.4449 30.2853 14.2561 30.0472 14.1932 29.7722C14.1573 29.6306 14.1541 29.4828 14.1837 29.3398C14.2132 29.1968 14.2749 29.0622 14.364 28.946C14.5608 28.6957 14.8448 28.5272 15.1604 28.4737C15.3782 28.4285 15.603 28.4285 15.8207 28.4737C16.0474 28.5233 16.2673 28.5993 16.4758 28.7003L15.7128 29.4081L14.7096 29.0835C14.705 29.1409 14.708 29.1987 14.7185 29.2553C14.7571 29.431 14.9857 29.5978 15.4045 29.7557C15.721 29.8649 16.0292 29.9964 16.3268 30.149C16.476 30.2266 16.6067 30.3348 16.7102 30.4666C16.8137 30.5983 16.8875 30.7505 16.9267 30.9129C16.9607 31.0578 16.9606 31.2085 16.9263 31.3534C16.892 31.4982 16.8244 31.6333 16.7289 31.748V31.7544ZM19.2145 31.4807C18.9849 31.528 18.7477 31.5253 18.5192 31.4728C18.2908 31.4202 18.0765 31.3191 17.8914 31.1764C17.4887 30.8819 17.2167 30.4444 17.1322 29.9555C17.0234 29.472 17.1106 28.9654 17.375 28.545C17.4941 28.3423 17.6562 28.1677 17.85 28.0332C18.0439 27.8987 18.2649 27.8075 18.4977 27.7659C19.0184 27.6657 19.5108 27.804 19.975 28.1809L19.2287 28.8391C18.9805 28.6664 18.7001 28.5444 18.404 28.48C18.2281 28.4342 18.0449 28.4221 17.8644 28.4444C17.811 28.7021 17.8088 28.9676 17.858 29.2261C17.9038 29.4768 18.0036 29.7149 18.1506 29.924C18.2976 30.1332 18.4882 30.3085 18.7097 30.438C19.1964 30.7338 19.7801 30.8301 20.3372 30.7067C19.9891 31.1408 19.6166 31.3954 19.2145 31.4743V31.4807ZM22.4837 30.9715L22.8216 30.4291L22.7085 29.2426L21.7194 29.3355L21.8325 30.5221L22.2718 30.9918L20.5685 31.151L20.9076 30.6086L20.6507 27.9708L20.2203 27.4985L21.9237 27.3381L21.5807 27.8804L21.677 28.8989L22.6674 28.806L22.5698 27.7875L22.1356 27.3177L23.839 27.1573L23.496 27.7009L23.7529 30.3387L24.1922 30.8085L22.4837 30.9715ZM27.3933 30.4113C27.2262 30.5822 27.0244 30.716 26.8011 30.8038C26.5779 30.8916 26.3384 30.9314 26.0985 30.9205C25.8616 30.9194 25.6275 30.8701 25.4107 30.7754C25.1939 30.6808 24.9991 30.543 24.8383 30.3706C24.669 30.1912 24.5385 29.9794 24.4547 29.7482C24.371 29.517 24.3359 29.2713 24.3515 29.0262C24.3517 28.5109 24.556 28.0162 24.9206 27.6487C25.0855 27.4731 25.2869 27.3352 25.5109 27.2444C25.7349 27.1536 25.9762 27.1122 26.218 27.1229C26.4572 27.1258 26.6932 27.1784 26.9105 27.2776C27.1278 27.3767 27.3217 27.5201 27.4794 27.6984C27.6466 27.883 27.775 28.0988 27.8573 28.3331C27.9395 28.5674 27.9739 28.8155 27.9586 29.0631C27.958 29.3122 27.9078 29.5588 27.8108 29.7887C27.7138 30.0185 27.572 30.2271 27.3933 30.4024V30.4113ZM31.2149 30.9918C31.0235 31.1349 30.8035 31.2359 30.5696 31.2882C30.3357 31.3404 30.0933 31.3427 29.8584 31.2948C29.6252 31.2575 29.4022 31.173 29.2033 31.0466C29.0044 30.9203 28.8339 30.7547 28.7023 30.5602C28.563 30.3576 28.4669 30.1288 28.4198 29.888C28.3728 29.6472 28.3758 29.3995 28.4287 29.1599C28.5108 28.6562 28.7871 28.2038 29.1994 27.8982C29.3898 27.75 29.6103 27.6443 29.8458 27.5885C30.0813 27.5327 30.3262 27.528 30.5637 27.5749C30.7998 27.6143 31.0248 27.7027 31.2241 27.8344C31.4233 27.966 31.5922 28.1379 31.7198 28.3387C31.9786 28.7653 32.0702 29.2714 31.9771 29.7606C31.884 30.2497 31.6128 30.6879 31.2149 30.9918ZM34.4263 31.6487L34.1168 32.4839L31.7159 31.6093L32.258 31.2643L33.1803 28.7779L32.9928 28.1681L34.5985 28.7525L34.0525 29.0962L33.0634 31.7633L34.4263 31.6487Z" fill="white"/>
<path d="M29.6734 27.9696C29.4692 28.2849 29.353 28.6483 29.3365 29.0226C29.32 29.397 29.4039 29.7689 29.5796 30.1007C29.696 30.3165 29.8607 30.5029 30.0611 30.6457C30.2615 30.7885 30.4923 30.8838 30.7357 30.9244C30.8836 30.6936 30.9857 30.4369 31.0363 30.1682C31.1381 29.6981 31.0647 29.2074 30.8295 28.7869C30.7131 28.5718 30.5483 28.3862 30.3478 28.2445C30.1473 28.1027 29.9165 28.0087 29.6734 27.9696Z" fill="white"/>
</g>
<defs>
<clipPath id="clip0_47_59">
<rect width="38" height="38" fill="white"/>
</clipPath>
</defs>
</svg>
