<svg xmlns="http://www.w3.org/2000/svg" xmlns:xlink="http://www.w3.org/1999/xlink" width="110" height="23"><defs><path id="a" d="M.256 20.444h74.488V.131H.256z"/><path id="c" d="M0 0h18.906v17.889H0V0z"/></defs><g fill="none" fill-rule="evenodd"><g transform="translate(-105 -18)"><g transform="translate(105 18)"><path fill="#FEFEFE" d="M60.156 15.333V2.556h-2.25c-.837 0-1.134.418-1.674 1.178l-3.485 4.94-3.854-6.118h-2.42c-.807 0-.926.732-.926 1.17v11.607h2.772V6.917l3.76 5.66h1.177L57.2 6.948v8.385h2.957ZM66.81 9.27V4.674h1.098c2.023 0 2.325 1.261 2.325 2.012 0 2.462-2.706 2.587-3.248 2.587-.062 0-.096-.002-.096-.002l-.079-.003Zm.178 2.123c.425 0 1.925-.05 3.331-.704 1.81-.84 2.728-2.312 2.728-4.372 0-1.131-.43-3.761-4.42-3.761h-4.152c-.767 0-.881.734-.881 1.17v11.607h3.216v-3.94h.178ZM42.969 2.556h-2.424c-.795 0-.914.755-.914 1.204v7.086c0 2.372-1.222 2.87-2.249 2.87-1.025 0-2.248-.498-2.248-2.87v-8.29H32.71c-.794 0-.913.755-.913 1.204v7.353c0 2.314.969 5.072 5.585 5.072 4.617 0 5.587-2.758 5.587-5.072V2.556ZM25.781 15.333h3.438V2.556h-2.496c-.82 0-.942.732-.942 1.17v11.607Z"/><g transform="translate(12.89 2.556)"><mask id="b" fill="#fff"><use xlink:href="#a"/></mask><path fill="#FEFEFE" d="m3.91 6.748-.102-.001-.083-.004V2.22h1.134c2.158 0 2.48 1.241 2.48 1.981 0 2.425-2.856 2.547-3.43 2.547Zm70.834 5.968V.13h-2.49c-.818 0-.94.722-.94 1.153v2.102l-.07.014c-1.586.297-3.186.892-4.894 1.819l-.13.071V.13h-2.493c-.818 0-.94.723-.94 1.154v6.237l-.035.025c-.53.39-1.025.77-1.461 1.106l-.107.082c-8.892 6.807-17.75 9.876-28.724 9.95-.114.002-.23.002-.346.002-5.057 0-9.91-.82-14.035-2.371-4.8-1.806-8.427-4.499-10.779-8.006l-.057-.086.097-.04c1.99-.82 3.001-2.283 3.001-4.345 0-1.115-.46-3.706-4.716-3.706h-4.43C.379.132.257.855.257 1.285v11.432h3.469V8.833l.09.002c.002 0 .076.003.204 0h.042l.028.031c4.52 5.282 13.111 11.579 28.37 11.579 11.418 0 20.728-3.112 30.186-10.088l.142-.104v2.463h3.432v-4.9l.04-.024c1.833-1.154 3.408-1.8 4.953-2.03l.101-.015v6.969h3.431Z" mask="url(#b)"/></g><path fill="#FEFEFE" d="M12.031 2.556H.951c-.786 0-.951.637-.951 1.17v1.868h4.225v9.74h3.562v-9.74h3.273c.845 0 .971-.734.971-1.171V2.556Z"/><g transform="translate(91.094)"><mask id="d" fill="#fff"><use xlink:href="#c"/></mask><path fill="#FEFEFE" d="m18.04 2.509-7.571 13.94c-.285.528-.589.752-1.016.752-.427 0-.731-.224-1.016-.751L.867 2.509C.65 2.093.592 1.649.713 1.321c.096-.263.293-.45.585-.554.155-.055.33-.08.566-.08h15.176c.236 0 .412.025.566.08.292.105.49.291.586.554.12.328.063.772-.153 1.188m.86-.986a1.763 1.763 0 0 0-.1-.45 1.557 1.557 0 0 0-.391-.6 1.682 1.682 0 0 0-.592-.358h-.004a1.913 1.913 0 0 0-.374-.09A2.9 2.9 0 0 0 17.041 0H1.865c-.147 0-.278.009-.398.025a1.909 1.909 0 0 0-.374.09H1.09a1.68 1.68 0 0 0-.59.358 1.545 1.545 0 0 0-.393.6 1.73 1.73 0 0 0-.098.45c-.013.146-.01.298.01.451.02.146.053.295.1.441.046.144.106.287.177.425l.006.01 7.571 13.942c.092.169.185.312.284.438.054.069.111.133.17.19.06.062.126.117.192.166a1.52 1.52 0 0 0 .935.303 1.53 1.53 0 0 0 .935-.303 2.034 2.034 0 0 0 .362-.356c.1-.126.192-.27.284-.438l7.57-13.941.007-.011c.072-.138.132-.28.178-.425.047-.146.08-.295.099-.44a2.13 2.13 0 0 0 .011-.452" mask="url(#d)"/></g><path fill="#FEFEFE" d="m103.235 6.89 1.777.987.362-.645-2.139-1.129h2.772l.555-.992h-4.296v7.667l.97-1.73zM97.859 6.89l-1.778.987-.361-.645 2.139-1.129h-2.772l-.556-.992h4.297v7.667l-.97-1.73z"/></g></g></g></svg>