<?xml version="1.0" encoding="utf-8"?>
<!-- Generator: Adobe Illustrator 25.4.6, SVG Export Plug-In . SVG Version: 6.00 Build 0)  -->
<svg version="1.1" id="Ebene_1" xmlns="http://www.w3.org/2000/svg" xmlns:xlink="http://www.w3.org/1999/xlink" x="0px" y="0px"
	 viewBox="0 0 91 21" style="enable-background:new 0 0 91 21;" xml:space="preserve">
<style type="text/css">
	.st0{fill:#FFFFFF;}
</style>
<g>
	<path class="st0" d="M10.1,10.1c1.1-1,1.7-2.4,1.7-4c0-3.3-2.4-5.7-5.7-5.7H0v20.1h6.4c3.4,0,5.9-2.5,5.9-5.9
		C12.4,12.7,11.5,11.1,10.1,10.1z M3.2,3.5h2.7c1.6,0,2.6,1.1,2.6,2.6c0,1.5-1.1,2.6-2.6,2.6H3.2V3.5z M6.3,17.4H3.2v-5.6h3.1
		c1.7,0,2.8,1.1,2.8,2.8S8,17.4,6.3,17.4z"/>
	<path class="st0" d="M23.9,15c0,1.6-1.2,2.8-2.8,2.8c-1.6,0-2.8-1.2-2.8-2.8V0.4h-3.2v14.3c0,3.6,2.5,6.1,6,6.1s6-2.6,6-6.1V0.4
		h-3.2V15z"/>
	<path class="st0" d="M36.6,0c-3.5,0-6,2.6-6,6.1v8.6c0,3.6,2.5,6.1,6,6.1c3.5,0,6-2.6,6-6.1V8.9h-6V12h2.8v3c0,1.6-1.2,2.8-2.8,2.8
		c-1.6,0-2.8-1.2-2.8-2.8V6c0-1.6,1.2-2.8,2.8-2.8c1.6,0,2.8,1.2,2.8,2.8v0.5h3.2V6.2C42.6,2.6,40.1,0,36.6,0z"/>
	<path class="st0" d="M49.6,0.4l-4.6,20.1h3.2l0.9-4h5.5l0.9,4h3.2L54,0.4H49.6z M49.8,13.4l2-8.8l2,8.8H49.8z"/>
	<polygon class="st0" points="59.1,3.5 63.6,3.5 63.6,20.5 66.7,20.5 66.8,3.5 71.2,3.5 71.2,0.4 59.1,0.4 	"/>
	<polygon class="st0" points="72.9,3.5 77.3,3.5 77.3,20.5 80.5,20.5 80.5,3.5 84.9,3.5 84.9,0.4 72.9,0.4 	"/>
	<rect x="87.8" y="0.4" class="st0" width="3.2" height="20.1"/>
</g>
</svg>
