<svg id="レイヤー_1" data-name="レイヤー 1" xmlns="http://www.w3.org/2000/svg" viewBox="0 0 669.78 125.69"><defs><style>.cls-1{fill:#df013a;}.cls-2{fill:#003790;}</style></defs><path class="cls-1" d="M47.52,27.66l27.55,19a35.14,35.14,0,0,0,21.62,7c15.23,0,29-10.23,29-10.23L62.85,0S56,7.55,34.46,21C11.85,35.05,0,39.14,0,39.14L81.41,95.37l-3.62,2.38L50.65,79A35.11,35.11,0,0,0,29,72C13.8,72,0,82.26,0,82.26l62.87,43.43s6.87-7.54,28.39-21c22.61-14.09,34.46-18.18,34.46-18.18L43.9,30Z"/><path class="cls-2" d="M208.65,53.74c-11.94-1.54-22.58-1.85-22.85-6.19-.36-5.47,8.36-6,11.2-6,4.75,0,12.44,1.09,14.23,8.24h30.51c0-13.74-13-24.61-44.63-24.7C162,25,156,40.48,156,49.29c0,16.32,12.66,21.14,40.09,24,10.19,1.07,16.67,1,16.67,6.11s-7.75,5.75-11,5.75c-3,0-11.44,0-14.2-8.55H154.44c1.44,16,11.56,25.45,47.29,25.35,33.65-.1,42.46-13.74,42.46-24.18C244.19,67.68,237.28,57.4,208.65,53.74Z"/><polygon class="cls-2" points="343.94 45.72 384.25 45.72 342.54 84.69 342.54 100.22 427.26 100.22 427.26 81.61 385.11 81.61 427.39 42.73 427.39 27.18 343.94 27.18 343.94 45.72"/><rect class="cls-2" x="628.48" y="27.18" width="27.56" height="73.04"/><polygon class="cls-2" points="586.72 27.18 557.39 52.35 557.39 27.18 529.8 27.18 529.8 100.22 557.39 100.22 557.39 74.33 584.62 100.22 621.71 100.22 581.37 62.78 623.03 27.18 586.72 27.18"/><path class="cls-2" d="M308.38,57.82v11.5c0,9-3.25,14.94-15.46,14.94s-15.46-6-15.46-14.94V27.18H251V53.79c0,3.51.07,15.29.14,21.89.09,9.39,2.41,27.33,41.75,27.33s41.65-17.94,41.75-27.33c.07-6.6.14-18.38.14-21.89V27.18H308.38Z"/><path class="cls-2" d="M493.89,57.82v11.5c0,9-3.26,14.94-15.47,14.94S463,78.3,463,69.32V27.18H436.53V53.79c0,3.51.07,15.29.14,21.89.1,9.39,2.41,27.33,41.75,27.33s41.66-17.94,41.75-27.33c.07-6.6.15-18.38.15-21.89V27.18H493.89Z"/><path class="cls-2" d="M665.53,95.1c.58,0,1-.13,1-.78s-.74-.69-1.24-.69H664V95.1Zm1.84,3h-1.19L665,95.88h-1v2.18h-1V92.88h2.52a3,3,0,0,1,1.4.24,1.49,1.49,0,0,1,.62,1.35c0,1-.5,1.35-1.42,1.41Zm1.51-2.6a3.91,3.91,0,1,0-3.9,3.92,3.89,3.89,0,0,0,3.9-3.92m-8.73,0a4.82,4.82,0,1,1,4.83,4.81,4.82,4.82,0,0,1-4.83-4.81"/></svg>